<svg xmlns="http://www.w3.org/2000/svg" viewBox="0 0 266.46 188.41">
  <defs>
    <style>
      .cls-1 {
        fill: #fff;
      }
    </style>
  </defs>
  <g id="Layer_2" data-name="Layer 2">
    <g id="Layer_1-2" data-name="Layer 1">
      <path class="cls-1"
        d="M33.9,60.23C32.24,78.62,26,88.11,17.21,88.11,5.56,88.11,0,69.72,0,43.94,0,17.57,6.22,0,17.68,0,26,0,32.18,11.37,33.77,28.59H27.34c-.86-9.73-3.77-18.16-9.86-18.16-7,0-11,11.48-11,33.51,0,21,3.71,33.86,11.12,33.86,6.09,0,9.14-7.26,10-17.57Z" />
      <polygon class="cls-1"
        points="78.98 1.52 78.98 86.59 72.69 86.59 72.69 48.04 54.15 48.04 54.15 86.59 47.86 86.59 47.86 1.52 54.15 1.52 54.15 37.49 72.69 37.49 72.69 1.52 78.98 1.52" />
      <polygon class="cls-1"
        points="95.86 1.64 124.46 1.64 124.46 12.19 102.15 12.19 102.15 37.49 123.14 37.49 123.14 48.04 102.15 48.04 102.15 76.04 124.46 76.04 124.46 86.59 95.86 86.59 95.86 1.64" />
      <path class="cls-1"
        d="M173.05,60.23c-1.65,18.39-7.88,27.88-16.68,27.88-11.66,0-17.22-18.39-17.22-44.17C139.15,17.57,145.38,0,156.83,0c8.28,0,14.5,11.37,16.09,28.59H166.5c-.86-9.73-3.78-18.16-9.87-18.16-6.95,0-11,11.48-11,33.51,0,21,3.71,33.86,11.12,33.86,6.1,0,9.14-7.26,10-17.57Z" />
      <polygon class="cls-1"
        points="194.56 42.3 211.71 1.64 219.13 1.64 204.63 34.8 220.98 86.59 213.76 86.59 200.52 44.17 194.56 57.77 194.56 86.59 188.27 86.59 188.27 1.64 194.56 1.64 194.56 42.3" />
      <path class="cls-1"
        d="M7.15,101.94v51.67c0,16.64,1.66,24.49,9.8,24.49s9.93-8.9,9.93-25.77V101.94h6.29v49.45c0,24.84-3.71,37-16.22,37-12,0-16.09-9.6-16.09-36.08V101.94Z" />
      <path class="cls-1"
        d="M59.58,146.82c-6.35-2.46-12.11-9.49-12.11-23.09,0-14.64,7.15-23.31,15.75-23.31,7.42,0,14.9,7,16,23.9H73c-.73-10.19-5.7-13.59-10.07-13.59S54,114.6,54,123.38c0,7.5,3,11.14,7,12.66l4.76,1.87c7.68,3.05,14.5,8.91,14.5,25.2,0,15.93-7,25.3-16.22,25.3-9.8,0-16.82-11.13-17.34-28h6.22c.73,11.37,5.16,17.69,11.32,17.69,4.77,0,9.67-4.33,9.67-14.17,0-8.91-3.71-12.66-9-14.89Z" />
      <path class="cls-1"
        d="M174.11,144.36c0,25.66-6,44-17.94,44s-17.94-18.39-17.94-44,6-43.94,17.94-43.94S174.11,118.7,174.11,144.36Zm-29.4,0c0,21.68,3.45,33.74,11.46,33.74s11.45-12.18,11.45-33.74-3.44-33.63-11.45-33.63S144.71,122.68,144.71,144.36Z" />
      <path class="cls-1"
        d="M192.64,101.94v51.67c0,16.64,1.66,24.49,9.8,24.49s9.93-8.9,9.93-25.77V101.94h6.29v49.45c0,24.84-3.7,37-16.22,37-12,0-16.09-9.6-16.09-36.08V101.94Z" />
      <polygon class="cls-1"
        points="245.74 112.49 231.31 112.49 231.31 101.94 266.46 101.94 266.46 112.49 252.03 112.49 252.03 186.89 245.74 186.89 245.74 112.49" />
    </g>
  </g>
</svg>