<svg xmlns="http://www.w3.org/2000/svg" viewBox="0 0 56.01 83.34">
  <defs>
    <style>
      .cls-1 {
        fill: none;
        stroke: #fff;
        stroke-miterlimit: 10;
      }
    </style>
  </defs>
  <g id="Layer_2" data-name="Layer 2">
    <g id="Layer_1-2" data-name="Layer 1">
      <path
        d="M42,48.91l0,.39c0,.14,0,.29,0,.44s0,.31,0,.49,0,.36,0,.55,0,.61,0,.9,0,.58,0,.87,0,.61-.07.88-.05.52-.08.76,0,.5-.09.74-.08.47-.12.69-.09.45-.14.68-.05.22-.07.33-.05.21-.07.32,0,.21-.07.32l-.06.31c0,.2-.07.39-.1.6s0,.36-.06.38a.58.58,0,0,0-.16.41,2.13,2.13,0,0,0,0,.35,3.56,3.56,0,0,0,.05.43l.06.42c0,.14,0,.27.05.39s0,.24,0,.34a1.5,1.5,0,0,1,0,.3c0,.14,0,.28-.08.42s0,.29-.08.44-.09.25-.15.37-.1.22-.14.33a1.81,1.81,0,0,0-.07.55,2.19,2.19,0,0,0,0,.51,1,1,0,0,1,0,.36,1.25,1.25,0,0,1-.12.31,1.43,1.43,0,0,1-.16.24,2.63,2.63,0,0,1-.41.35,1.18,1.18,0,0,1-.45.18,1.05,1.05,0,0,1-.5,0,1.92,1.92,0,0,1-.43-.17A2.55,2.55,0,0,1,38,64.8l-.15-.17a1.28,1.28,0,0,1-.11-.2,1.42,1.42,0,0,1-.07-.22,1.57,1.57,0,0,1,0-.23c0-.11,0-.21,0-.3a2.09,2.09,0,0,1,0-.24c0-.12,0-.25,0-.4s0-.33,0-.53,0-.39,0-.58a4.41,4.41,0,0,0-.06-.55q0-.27-.09-.48a3.78,3.78,0,0,0-.12-.36,2.44,2.44,0,0,0-.29-.49,2,2,0,0,0-.3-.32,1.81,1.81,0,0,0-.25-.16,1.25,1.25,0,0,0-.31-.12,1.34,1.34,0,0,0-.44.1,2.28,2.28,0,0,0-.41.33c-.13.12-.25.25-.36.37s-.23.21-.35.3-.3.3-.43.41a3.9,3.9,0,0,1-.36.22,1.12,1.12,0,0,1-.39.1l-.08,0a2.83,2.83,0,0,0-.46.51,2.69,2.69,0,0,0-.19.32,3.34,3.34,0,0,0-.16.38c0,.12-.08.24-.11.36s-.07.25-.1.36a3.19,3.19,0,0,1-.11.33c0,.1-.09.19-.13.29s-.18.37-.25.53a2.22,2.22,0,0,0-.16.42,3.14,3.14,0,0,0-.08.4c0,.13-.05.27-.07.41s-.09.33-.14.52-.14.41-.23.64a3.13,3.13,0,0,1-.49.83,2.27,2.27,0,0,1-.32.3c-.11.09-.23.16-.35.24a.93.93,0,0,0-.44.34c-.06.1,0,.18.09.24a.22.22,0,0,1,.09.34,2.63,2.63,0,0,1-.51.52,1.46,1.46,0,0,0-.34.58c0,.16,0,.22.15.2a1.42,1.42,0,0,0,.38.12c.28.1.26.29-.07.53-.11.1-.14.18-.11.22a.53.53,0,0,1,.15.33,1.4,1.4,0,0,1-.05.48c0,.21-.13.48-.23.86a10.45,10.45,0,0,0-.29,1.41c0,.59.58,0,.46.68a2.59,2.59,0,0,0,.1.71,1.91,1.91,0,0,0,.25.54,5.44,5.44,0,0,1,.22.8c.06.29.11.59.15.91s.08.67.1,1,0,.65.05,1a5.72,5.72,0,0,1,0,.62,3.21,3.21,0,0,1-.09.5,2.28,2.28,0,0,1-.28.68,2.5,2.5,0,0,1-.37.36,1.8,1.8,0,0,1-.4.23c-.21.1-.41.21-.58.31a1.61,1.61,0,0,1-.76.18,3,3,0,0,1-.52,0,2.71,2.71,0,0,1-.51-.1l-.41-.14-.48-.22a2.27,2.27,0,0,1-.69-.72,3.23,3.23,0,0,1-.35-1.1,9.64,9.64,0,0,1-.07-1.29c0-.42,0-.79,0-1.13a5.86,5.86,0,0,1,.09-.72,5.07,5.07,0,0,1,.09-.5c0-.12.07-.23.11-.34s0-.19.07-.28a1,1,0,0,0,0-.37,1.21,1.21,0,0,0-.18-.5c-.07-.16-.06-.23,0-.18s.18-.07.13-.24a3.5,3.5,0,0,1,0-.37c0-.14,0-.29,0-.46s0-.29-.05-.47-.06-.39-.11-.65-.05-.29-.09-.46-.08-.35-.13-.55-.11-.38-.16-.57a4.08,4.08,0,0,1-.11-.57c0-.14,0-.29,0-.44V70q0-.39,0-.72a1.48,1.48,0,0,0,0-.5,1,1,0,0,0-.14-.33,3.28,3.28,0,0,0-.43-.48,5.24,5.24,0,0,1-.37-.55,2.56,2.56,0,0,1-.16-.4,5.16,5.16,0,0,1-.13-.5c-.05-.17-.09-.35-.13-.56s-.1-.44-.15-.7-.09-.56-.13-.85-.09-.6-.14-.88A2.55,2.55,0,0,0,22,62.6c-.15-.15-.29-.18-.42-.07a.82.82,0,0,0-.35.32,1.39,1.39,0,0,0-.17.52,2.38,2.38,0,0,1-.06.55,4.91,4.91,0,0,1-.15.51c-.06.19-.13.38-.19.59s-.12.44-.17.67-.12.47-.18.72l-.15.81c0,.25-.06.52-.08.78,0,0,0,.44,0,.86,0,1.43.63,2,.22,2.75a2,2,0,0,1-1,.85,2.51,2.51,0,0,1-.43.12,4.07,4.07,0,0,1-.69,0,1.88,1.88,0,0,1-.5-.07,1.68,1.68,0,0,1-.6-.3,1.89,1.89,0,0,1-.47-.75,3.06,3.06,0,0,1-.07-.54,2.38,2.38,0,0,1,0-.59,5.61,5.61,0,0,1,.19-.62c.07-.19.15-.37.21-.54a5.73,5.73,0,0,0,.23-1,4.49,4.49,0,0,0,0-.83,3.9,3.9,0,0,0-.11-.67,5.81,5.81,0,0,0-.33-.93,3.1,3.1,0,0,0-.39-.63c-.08-.2-.17-.38-.26-.57s-.18-.36-.27-.56l-.25-.63-.21-.62c0-.23-.08-.47-.11-.72s-.07-.5-.1-.75,0-.4-.06-.62,0-.46,0-.71c0-.49,0-1,0-1.5s0-.74,0-1.11,0-.71,0-1a6.65,6.65,0,0,0-.25-1.47c-.07-.19-.13-.39-.19-.6A8.46,8.46,0,0,1,14.32,53q-.06-.39-.09-.84c0-.3,0-.62-.05-1s0-.48,0-.77,0-.63,0-1,0-.53,0-.78,0-.49,0-.71" />
      <path class="cls-1"
        d="M42,48.91l0,.39c0,.14,0,.29,0,.44s0,.31,0,.49,0,.36,0,.55,0,.61,0,.9,0,.58,0,.87,0,.61-.07.88-.05.52-.08.76,0,.5-.09.74-.08.47-.12.69-.09.45-.14.68-.05.22-.07.33-.05.21-.07.32,0,.21-.07.32l-.06.31c0,.2-.07.39-.1.6s0,.36-.06.38a.58.58,0,0,0-.16.41,2.13,2.13,0,0,0,0,.35,3.56,3.56,0,0,0,.05.43l.06.42c0,.14,0,.27.05.39s0,.24,0,.34a1.5,1.5,0,0,1,0,.3c0,.14,0,.28-.08.42s0,.29-.08.44-.09.25-.15.37-.1.22-.14.33a1.81,1.81,0,0,0-.07.55,2.19,2.19,0,0,0,0,.51,1,1,0,0,1,0,.36,1.25,1.25,0,0,1-.12.31,1.43,1.43,0,0,1-.16.24,2.63,2.63,0,0,1-.41.35,1.18,1.18,0,0,1-.45.18,1.05,1.05,0,0,1-.5,0,1.92,1.92,0,0,1-.43-.17A2.55,2.55,0,0,1,38,64.8l-.15-.17a1.28,1.28,0,0,1-.11-.2,1.42,1.42,0,0,1-.07-.22,1.57,1.57,0,0,1,0-.23c0-.11,0-.21,0-.3a2.09,2.09,0,0,1,0-.24c0-.12,0-.25,0-.4s0-.33,0-.53,0-.39,0-.58a4.41,4.41,0,0,0-.06-.55q0-.27-.09-.48a3.78,3.78,0,0,0-.12-.36,2.44,2.44,0,0,0-.29-.49,2,2,0,0,0-.3-.32,1.81,1.81,0,0,0-.25-.16,1.25,1.25,0,0,0-.31-.12,1.34,1.34,0,0,0-.44.1,2.28,2.28,0,0,0-.41.33c-.13.12-.25.25-.36.37s-.23.21-.35.3-.3.3-.43.41a3.9,3.9,0,0,1-.36.22,1.12,1.12,0,0,1-.39.1l-.08,0a2.83,2.83,0,0,0-.46.51,2.69,2.69,0,0,0-.19.32,3.34,3.34,0,0,0-.16.38c0,.12-.08.24-.11.36s-.07.25-.1.36a3.19,3.19,0,0,1-.11.33c0,.1-.09.19-.13.29s-.18.37-.25.53a2.22,2.22,0,0,0-.16.42,3.14,3.14,0,0,0-.08.4c0,.13-.05.27-.07.41s-.09.33-.14.52-.14.41-.23.64a3.13,3.13,0,0,1-.49.83,2.27,2.27,0,0,1-.32.3c-.11.09-.23.16-.35.24a.93.93,0,0,0-.44.34c-.06.1,0,.18.09.24a.22.22,0,0,1,.09.34,2.63,2.63,0,0,1-.51.52,1.46,1.46,0,0,0-.34.58c0,.16,0,.22.15.2a1.42,1.42,0,0,0,.38.12c.28.1.26.29-.07.53-.11.1-.14.18-.11.22a.53.53,0,0,1,.15.33,1.4,1.4,0,0,1-.05.48c0,.21-.13.48-.23.86a10.45,10.45,0,0,0-.29,1.41c0,.59.58,0,.46.68a2.59,2.59,0,0,0,.1.71,1.91,1.91,0,0,0,.25.54,5.44,5.44,0,0,1,.22.8c.06.29.11.59.15.91s.08.67.1,1,0,.65.05,1a5.72,5.72,0,0,1,0,.62,3.21,3.21,0,0,1-.09.5,2.28,2.28,0,0,1-.28.68,2.5,2.5,0,0,1-.37.36,1.8,1.8,0,0,1-.4.23c-.21.1-.41.21-.58.31a1.61,1.61,0,0,1-.76.18,3,3,0,0,1-.52,0,2.71,2.71,0,0,1-.51-.1l-.41-.14-.48-.22a2.27,2.27,0,0,1-.69-.72,3.23,3.23,0,0,1-.35-1.1,9.64,9.64,0,0,1-.07-1.29c0-.42,0-.79,0-1.13a5.86,5.86,0,0,1,.09-.72,5.07,5.07,0,0,1,.09-.5c0-.12.07-.23.11-.34s0-.19.07-.28a1,1,0,0,0,0-.37,1.21,1.21,0,0,0-.18-.5c-.07-.16-.06-.23,0-.18s.18-.07.13-.24a3.5,3.5,0,0,1,0-.37c0-.14,0-.29,0-.46s0-.29-.05-.47-.06-.39-.11-.65-.05-.29-.09-.46-.08-.35-.13-.55-.11-.38-.16-.57a4.08,4.08,0,0,1-.11-.57c0-.14,0-.29,0-.44V70q0-.39,0-.72a1.48,1.48,0,0,0,0-.5,1,1,0,0,0-.14-.33,3.28,3.28,0,0,0-.43-.48,5.24,5.24,0,0,1-.37-.55,2.56,2.56,0,0,1-.16-.4,5.16,5.16,0,0,1-.13-.5c-.05-.17-.09-.35-.13-.56s-.1-.44-.15-.7-.09-.56-.13-.85-.09-.6-.14-.88A2.55,2.55,0,0,0,22,62.6c-.15-.15-.29-.18-.42-.07a.82.82,0,0,0-.35.32,1.39,1.39,0,0,0-.17.52,2.38,2.38,0,0,1-.06.55,4.91,4.91,0,0,1-.15.51c-.06.19-.13.38-.19.59s-.12.44-.17.67-.12.47-.18.72l-.15.81c0,.25-.06.52-.08.78,0,0,0,.44,0,.86,0,1.43.63,2,.22,2.75a2,2,0,0,1-1,.85,2.51,2.51,0,0,1-.43.12,4.07,4.07,0,0,1-.69,0,1.88,1.88,0,0,1-.5-.07,1.68,1.68,0,0,1-.6-.3,1.89,1.89,0,0,1-.47-.75,3.06,3.06,0,0,1-.07-.54,2.38,2.38,0,0,1,0-.59,5.61,5.61,0,0,1,.19-.62c.07-.19.15-.37.21-.54a5.73,5.73,0,0,0,.23-1,4.49,4.49,0,0,0,0-.83,3.9,3.9,0,0,0-.11-.67,5.81,5.81,0,0,0-.33-.93,3.1,3.1,0,0,0-.39-.63c-.08-.2-.17-.38-.26-.57s-.18-.36-.27-.56l-.25-.63-.21-.62c0-.23-.08-.47-.11-.72s-.07-.5-.1-.75,0-.4-.06-.62,0-.46,0-.71c0-.49,0-1,0-1.5s0-.74,0-1.11,0-.71,0-1a6.65,6.65,0,0,0-.25-1.47c-.07-.19-.13-.39-.19-.6A8.46,8.46,0,0,1,14.32,53q-.06-.39-.09-.84c0-.3,0-.62-.05-1s0-.48,0-.77,0-.63,0-1,0-.53,0-.78,0-.49,0-.71" />
      <path
        d="M42,50.77V41a5.4,5.4,0,0,0-2.7-4.68l-8.47-4.89a5.39,5.39,0,0,0-5.41,0L17,36.31A5.4,5.4,0,0,0,14.27,41v9.78A5.41,5.41,0,0,0,17,55.45l8.47,4.89a5.44,5.44,0,0,0,5.41,0l8.47-4.89A5.41,5.41,0,0,0,42,50.77" />
      <path class="cls-1"
        d="M42,50.77V41a5.4,5.4,0,0,0-2.7-4.68l-8.47-4.89a5.39,5.39,0,0,0-5.41,0L17,36.31A5.4,5.4,0,0,0,14.27,41v9.78A5.41,5.41,0,0,0,17,55.45l8.47,4.89a5.44,5.44,0,0,0,5.41,0l8.47-4.89A5.41,5.41,0,0,0,42,50.77Z" />
      <polyline class="cls-1" points="28.15 61.06 28.15 46.92 41.54 39.19" />
      <line class="cls-1" x1="28.15" y1="46.92" x2="14.77" y2="39.19" />
      <path
        d="M28.25,29.11V19.33a5.4,5.4,0,0,0-2.71-4.68L17.07,9.76a5.37,5.37,0,0,0-5.4,0L3.2,14.65A5.41,5.41,0,0,0,.5,19.33v9.78a5.41,5.41,0,0,0,2.7,4.68l8.47,4.89a5.42,5.42,0,0,0,5.4,0l8.47-4.89a5.4,5.4,0,0,0,2.71-4.68" />
      <path class="cls-1"
        d="M28.25,29.11V19.33a5.4,5.4,0,0,0-2.71-4.68L17.07,9.76a5.37,5.37,0,0,0-5.4,0L3.2,14.65A5.41,5.41,0,0,0,.5,19.33v9.78a5.41,5.41,0,0,0,2.7,4.68l8.47,4.89a5.42,5.42,0,0,0,5.4,0l8.47-4.89A5.4,5.4,0,0,0,28.25,29.11Z" />
      <polyline class="cls-1" points="14.38 39.4 14.38 24.48 27.77 16.75" />
      <line class="cls-1" x1="14.38" y1="24.48" x2="1" y2="16.75" />
      <path
        d="M42,36V26.23a5.41,5.41,0,0,0-2.7-4.68l-8.47-4.89a5.44,5.44,0,0,0-5.41,0L17,21.55a5.41,5.41,0,0,0-2.7,4.68V36A5.41,5.41,0,0,0,17,40.69l8.47,4.89a5.44,5.44,0,0,0,5.41,0l8.47-4.89A5.41,5.41,0,0,0,42,36" />
      <path class="cls-1"
        d="M42,36V26.23a5.41,5.41,0,0,0-2.7-4.68l-8.47-4.89a5.44,5.44,0,0,0-5.41,0L17,21.55a5.41,5.41,0,0,0-2.7,4.68V36A5.41,5.41,0,0,0,17,40.69l8.47,4.89a5.44,5.44,0,0,0,5.41,0l8.47-4.89A5.41,5.41,0,0,0,42,36Z" />
      <polyline class="cls-1" points="28.16 46.85 28.16 31.39 41.55 23.66" />
      <line class="cls-1" x1="28.16" y1="31.39" x2="14.78" y2="23.66" />
      <path
        d="M55.51,44V34.23a5.39,5.39,0,0,0-2.7-4.68l-8.47-4.89a5.37,5.37,0,0,0-5.4,0l-8.47,4.89a5.39,5.39,0,0,0-2.7,4.68V44a5.41,5.41,0,0,0,2.7,4.68l8.47,4.89a5.42,5.42,0,0,0,5.4,0l8.47-4.89A5.41,5.41,0,0,0,55.51,44" />
      <path class="cls-1"
        d="M55.51,44V34.23a5.39,5.39,0,0,0-2.7-4.68l-8.47-4.89a5.37,5.37,0,0,0-5.4,0l-8.47,4.89a5.39,5.39,0,0,0-2.7,4.68V44a5.41,5.41,0,0,0,2.7,4.68l8.47,4.89a5.42,5.42,0,0,0,5.4,0l8.47-4.89A5.41,5.41,0,0,0,55.51,44Z" />
      <polyline class="cls-1" points="41.64 54.84 41.65 39.38 55.03 31.65" />
      <line class="cls-1" x1="41.65" y1="39.38" x2="28.26" y2="31.65" />
      <path
        d="M42,20.57V10.79a5.41,5.41,0,0,0-2.7-4.68L30.86,1.22a5.42,5.42,0,0,0-5.4,0L17,6.11a5.4,5.4,0,0,0-2.71,4.68v9.78A5.39,5.39,0,0,0,17,25.25l8.47,4.89a5.37,5.37,0,0,0,5.4,0l8.47-4.89A5.4,5.4,0,0,0,42,20.57" />
      <path class="cls-1"
        d="M42,20.57V10.79a5.41,5.41,0,0,0-2.7-4.68L30.86,1.22a5.42,5.42,0,0,0-5.4,0L17,6.11a5.4,5.4,0,0,0-2.71,4.68v9.78A5.39,5.39,0,0,0,17,25.25l8.47,4.89a5.37,5.37,0,0,0,5.4,0l8.47-4.89A5.4,5.4,0,0,0,42,20.57Z" />
      <polyline class="cls-1" points="28.16 31.41 28.17 15.95 41.55 8.22" />
      <line class="cls-1" x1="28.17" y1="15.95" x2="14.78" y2="8.22" />
    </g>
  </g>
</svg>