<?xml version="1.0" encoding="utf-8"?>
<!-- Generator: Adobe Illustrator 25.0.1, SVG Export Plug-In . SVG Version: 6.00 Build 0)  -->
<svg version="1.1" id="Layer_1" xmlns="http://www.w3.org/2000/svg" xmlns:xlink="http://www.w3.org/1999/xlink" x="0px"
	y="0px" viewBox="0 0 276.8 34.7" style="enable-background:new 0 0 276.8 34.7;" xml:space="preserve">
	<style type="text/css">
		.st0 {
			fill: #FFFFFF;
		}
	</style>
	<g id="Layer_2_1_">
		<g id="Layer_1-2">
			<path class="st0" d="M4.3,34.4H0V0.3h4.3V34.4z M6.2,30.4h6.9c4.3,0,6.3-2.9,6.3-6s-2-5.9-6.3-5.9H6.2v-3.7h6.1
			c4.2,0,6.3-2.4,6.3-5.5s-2.1-5.2-6.3-5.2H6.2V0.3h6.6c6.6,0,10,3.4,10,8.6c0.1,3.3-1.9,6.3-5,7.4v0.2c4,0.9,5.9,4.9,5.9,8.3
			c0.2,5.1-3.9,9.4-9,9.6c-0.1,0-0.3,0-0.4,0H6.2V30.4z" />
			<path class="st0" d="M38.8,4.3c-5.1,0.5-6.9,4.5-6.9,8.6v9c0,4.5,2,8.7,7.9,8.7c3.2,0,6.1-2,7.2-5.1l4,2
			c-1.7,4.5-5.7,7.2-11.2,7.2c-8.7,0-12.1-5.8-12.1-12.6v-9.4c0-6.4,3.7-12.1,11.1-12.5V4.3z M40.6,0.1c4.6,0.1,8.6,2.9,10.3,7.2
			l-4,1.8c-1-2.7-3.4-4.6-6.3-4.8L40.6,0.1z" />
			<path class="st0" d="M81.9,34.4h-4.3V0.3h4.3V34.4z M83.7,30.4h15.4v4H83.7L83.7,30.4z" />
			<path class="st0" d="M109.8,34.4h-4.3V0.3h4.3V34.4z M111.7,0.3h15.8v4h-15.8V0.3z M111.7,14.8h12.6v3.8h-12.6V14.8z M111.7,30.5
			h16.5v4h-16.5V30.5z" />
			<path class="st0" d="M151.1,21.1L146,6.3h-0.2l-9.7,28.1h-4.5l12.5-34.1h3.7l7.6,20.8H151.1z M156,22.9l4.3,11.6h-4.5l-2.8-7.8
			h-12.2l1.3-3.7L156,22.9z" />
			<path class="st0" d="M170.9,34.4h-4.3V0.3h4.4L170.9,34.4z M172.7,16.8l13.6-16.4h5l-18.6,22.4L172.7,16.8z M181.2,15.4l11.6,19
			h-5l-9.4-15.6L181.2,15.4z" />
			<path class="st0" d="M208.2,34.7c-4.4-0.2-8.7-1.8-12.1-4.7l2.8-3.5c2.5,2.4,5.9,3.8,9.4,4L208.2,34.7z M210.1,30.6
			c3.9-0.2,7.1-2.1,7.1-5.5c0-8.9-19.5-4.1-19.5-15.5c0-5.9,4.9-9.2,10.7-9.6v4.2c-3.9,0.2-6.4,1.9-6.4,5c0,7.7,19.6,3.3,19.6,15.5
			c0,5.9-4.5,9.7-11.6,10V30.6z M210.2,0c3.6,0.1,7,1.2,9.9,3.3l-2.2,3.6c-2.3-1.5-4.9-2.4-7.7-2.7L210.2,0z" />
			<path class="st0" d="M228.6,34.4V29h5v5.4L228.6,34.4z" />
			<path class="st0" d="M243.2,4.4v-4h4v4H243.2z M243.2,34.4V10.1h4v24.3H243.2z" />
			<path class="st0" d="M264.7,34.7c-6-0.2-9.4-4-9.4-12.2c0-7.2,3-12.4,9.4-12.6v3.6c-3.5,0.5-5.3,3.5-5.3,8.9
			c0,5.1,1.6,8.2,5.3,8.6V34.7z M266.6,31.1c3.5-0.3,5.4-2.6,5.4-9.2c0-5.4-2.1-8.1-5.4-8.4V9.9c6.5,0.1,9.5,4.8,9.5,12.1
			c0,6.1-1.8,12.4-9.5,12.7V31.1z" />
		</g>
	</g>
</svg>