<svg xmlns="http://www.w3.org/2000/svg" viewBox="0 0 79.04 121.34"><defs><style>.cls-1{fill:#fff;}</style></defs><g id="Layer_2" data-name="Layer 2"><g id="Layer_1-2" data-name="Layer 1"><path d="M59.27,73.19c.8,4.62-1.2,8.62-1.62,13.61,0,.83,0,1.67-.08,2.48a23,23,0,0,1-.5,4.53,3.67,3.67,0,0,1-3,1c-1-2-1-5-1-7a1.28,1.28,0,0,0-.21-.7h0l-2-.16,0-.47.21-.65q-2.51,2-5,4c-1,4-2,9-5,12,2,2,0,4,0,7,2,3,2,6,2,9-1,0-1,1-1,2-3,2-5,1-7-2a22,22,0,0,1,1-8c-1-6-3-11-4-17,0-1,0-2-2-2-1,5-2,9-1,14-1,0-2,2-4,1-3-3,0-7-1-10-5-5-1-12-3.52-18a10.58,10.58,0,0,1-.45-1.86c-.05-.36-.09-.77-.12-1.19s-.06-.88-.07-1.35c0-.31,0-.67,0-1.1s0-.89,0-1.42c0-.38,0-.75,0-1.11s0-.69,0-1"/><path class="cls-1" d="M58.78,73.28A11.83,11.83,0,0,1,59,75.4c0,3.6-1.44,7.08-1.81,11.35v0c0,.84,0,1.67-.08,2.49a22.08,22.08,0,0,1-.49,4.41l.49.13-.36-.36a2.65,2.65,0,0,1-1.26.75,6.08,6.08,0,0,1-1.38.11v.5l.44-.23c-.92-1.82-.95-4.78-.94-6.77a1.65,1.65,0,0,0,0-.36,1.44,1.44,0,0,0-.29-.66l-.38.32.4-.3h0l0,0v0h0a.47.47,0,0,0-.17-.12l-.09,0-.06,0-.32,0c-.46,0-1.32-.11-1.72-.13l0,.49.49,0c0-.15,0-.31,0-.48l-.5,0,.48.15.21-.66-.79-.53q-2.5,2-5,4l-.18.26c-1,4-2,8.94-4.87,11.77v.71a2.2,2.2,0,0,1,.75,1.68A8.62,8.62,0,0,1,41,106a10.68,10.68,0,0,0-.46,2.84l.08.27c1.91,2.87,1.92,5.72,1.92,8.73h.5v-.5a1.37,1.37,0,0,0-.89.27,1.64,1.64,0,0,0-.55,1.07,7.52,7.52,0,0,0-.06,1.16h.5l-.28-.42a4.78,4.78,0,0,1-2.58,1,3,3,0,0,1-1.87-.69,8.76,8.76,0,0,1-1.86-2.12l-.41.28h.5a21.65,21.65,0,0,1,1-7.85l0-.24c-1-6.06-3-11.06-4-17l-.49.09h.5a5.7,5.7,0,0,0,0-.81,1.76,1.76,0,0,0-.64-1.22,2.88,2.88,0,0,0-1.82-.47l-.49.4a49.67,49.67,0,0,0-1.43,9.91,21.64,21.64,0,0,0,.43,4.28l.49-.09v-.5a1.68,1.68,0,0,0-.86.26c-.36.21-.69.48-1,.68a2,2,0,0,1-1,.33,1.89,1.89,0,0,1-.87-.22l-.22.45.35-.36a4.14,4.14,0,0,1-1.23-3.13c0-1.58.58-3.34.59-5.06a4.91,4.91,0,0,0-.24-1.61l-.12-.2a8,8,0,0,1-2.09-3.53,14.51,14.51,0,0,1-.46-4c0-1.46.1-3,.1-4.5a14.65,14.65,0,0,0-1-5.8l-.46.19.47-.16a9.55,9.55,0,0,1-.42-1.78h0c-.05-.35-.09-.74-.12-1.16s-.06-.86-.07-1.33h0c0-.31,0-.67,0-1.1s0-.9,0-1.43c0-.28,0-.55,0-.82v-.26h0c0-.35,0-.68,0-1l-1-.06c0,.32,0,.67,0,1h0V70c0,.28,0,.57,0,.85,0,.54,0,1,0,1.43s0,.79,0,1.09h0c0,.49,0,1,.07,1.38s.07.84.13,1.22h0a10.33,10.33,0,0,0,.47,2v0A13.71,13.71,0,0,1,21,83.41c0,1.48-.1,3-.1,4.5a15.46,15.46,0,0,0,.5,4.29,9.11,9.11,0,0,0,2.34,4l.36-.35-.48.15a3.93,3.93,0,0,1,.19,1.3c0,1.48-.58,3.25-.59,5.06a5.18,5.18,0,0,0,1.52,3.84l.13.09a3,3,0,0,0,1.32.33,3.44,3.44,0,0,0,1.93-.72c.24-.17.45-.32.62-.42a.88.88,0,0,1,.36-.14l.49-.59a20.47,20.47,0,0,1-.41-4.09,49.67,49.67,0,0,1,1.41-9.72l-.49-.09v.49a2.68,2.68,0,0,1,1,.14.67.67,0,0,1,.45.45,3.32,3.32,0,0,1,.08.92v.08c1,6.06,3,11.06,4,17l.5-.08-.48-.16a22.62,22.62,0,0,0-1,8.16l.08.27a9.69,9.69,0,0,0,2.09,2.37,3.94,3.94,0,0,0,2.47.89,5.7,5.7,0,0,0,3.13-1.12l.23-.41a4.09,4.09,0,0,1,.1-1.22.41.41,0,0,1,.13-.22.46.46,0,0,1,.27-.07l.5-.49c0-3,0-6.14-2.09-9.28l-.41.28h.5a9.67,9.67,0,0,1,.42-2.58,9.63,9.63,0,0,0,.47-2.39,3.29,3.29,0,0,0-1-2.39l-.35.36.35.35c3.15-3.17,4.13-8.25,5.13-12.23l-.48-.12.31.39,5-4-.31-.39-.48-.15c-.07.21-.13.43-.2.64l0,.12,0,.48.46.53,1.21.09.56,0h.21v-.15l0,.14h0v-.15l0,.14.07-.44-.09.44h0l.07-.44-.09.44.1-.48-.15.47h.05l.1-.48-.15.47.15-.48-.21.45.06,0,.15-.48-.21.45.21-.45-.38.33a.42.42,0,0,0,.17.12l.21-.45-.38.33h0v0a.57.57,0,0,1,.08.2l0,.13v0c0,2,0,5,1,7.22l.45.27a6.63,6.63,0,0,0,1.62-.13,3.72,3.72,0,0,0,1.73-1l.13-.23a22.92,22.92,0,0,0,.52-4.63c0-.82,0-1.66.08-2.49h-.5l.49,0C58.48,82.75,60,79.27,60,75.4a13.87,13.87,0,0,0-.19-2.29l-1,.17Z"/><path d="M59.39,71.8V57.93a7.67,7.67,0,0,0-3.83-6.64l-12-6.93a7.67,7.67,0,0,0-7.67,0l-12,6.93A7.67,7.67,0,0,0,20,57.93V71.8a7.67,7.67,0,0,0,3.83,6.64l12,6.94a7.67,7.67,0,0,0,7.67,0l12-6.94a7.67,7.67,0,0,0,3.83-6.64"/><path class="cls-1" d="M59.39,71.8h.5V57.93a8.15,8.15,0,0,0-4.08-7.07l-12-6.94a8.3,8.3,0,0,0-4.09-1.09,8.13,8.13,0,0,0-4.08,1.09l-12,6.94a8.15,8.15,0,0,0-4.08,7.07V71.8a8.17,8.17,0,0,0,4.08,7.08l12,6.93a8.2,8.2,0,0,0,8.17,0l12-6.93a8.17,8.17,0,0,0,4.08-7.08h-1A7.16,7.16,0,0,1,55.31,78l-12,6.93a7.17,7.17,0,0,1-7.17,0L24.12,78a7.16,7.16,0,0,1-3.58-6.21V57.93a7.15,7.15,0,0,1,3.58-6.2l12-6.94a7.17,7.17,0,0,1,7.17,0l12,6.94a7.15,7.15,0,0,1,3.58,6.2V71.8Z"/><polygon class="cls-1" points="40.22 86.4 40.23 66.64 58.97 55.81 58.47 54.95 39.23 66.06 39.22 86.4 40.22 86.41 40.22 86.4"/><polyline class="cls-1" points="39.98 65.91 20.99 54.95 20.49 55.81 39.48 66.78"/><path d="M39.86,41.08V27.21A7.66,7.66,0,0,0,36,20.57L24,13.63a7.7,7.7,0,0,0-7.66,0l-12,6.94A7.67,7.67,0,0,0,.5,27.21V41.08a7.67,7.67,0,0,0,3.83,6.64l12,6.93a7.65,7.65,0,0,0,7.66,0l12-6.93a7.66,7.66,0,0,0,3.84-6.64"/><path class="cls-1" d="M39.86,41.08h.5V27.21a8.16,8.16,0,0,0-4.09-7.07l-12-6.94a8.18,8.18,0,0,0-8.16,0l-12,6.94A8.17,8.17,0,0,0,0,27.21V41.08a8.17,8.17,0,0,0,4.08,7.07l12,6.94a8.13,8.13,0,0,0,4.08,1.09,8.23,8.23,0,0,0,4.08-1.09l12-6.94a8.16,8.16,0,0,0,4.09-7.07h-1a7.17,7.17,0,0,1-3.59,6.21l-12,6.93a7.16,7.16,0,0,1-7.16,0l-12-6.93A7.18,7.18,0,0,1,1,41.08V27.21A7.18,7.18,0,0,1,4.58,21l12-6.93a7.16,7.16,0,0,1,7.16,0l12,6.93a7.17,7.17,0,0,1,3.59,6.21V41.08Z"/><polygon class="cls-1" points="20.68 55.68 20.69 34.81 39.43 23.99 38.93 23.12 19.69 34.23 19.68 55.68 20.68 55.68 20.68 55.68"/><polyline class="cls-1" points="20.44 34.09 1.45 23.12 0.95 23.99 19.94 34.95"/><path d="M59.41,50.87V37a7.66,7.66,0,0,0-3.84-6.64l-12-6.94a7.7,7.7,0,0,0-7.66,0l-12,6.94A7.67,7.67,0,0,0,20.05,37V50.87a7.67,7.67,0,0,0,3.83,6.64l12,6.94a7.7,7.7,0,0,0,7.66,0l12-6.94a7.66,7.66,0,0,0,3.84-6.64"/><path class="cls-1" d="M59.41,50.87h.5V37a8.16,8.16,0,0,0-4.09-7.07L43.81,23a8.18,8.18,0,0,0-8.16,0l-12,6.94A8.15,8.15,0,0,0,19.55,37V50.87a8.15,8.15,0,0,0,4.08,7.07l12,6.94a8.18,8.18,0,0,0,8.16,0l12-6.94a8.16,8.16,0,0,0,4.09-7.07h-1a7.17,7.17,0,0,1-3.59,6.21L43.31,64a7.16,7.16,0,0,1-7.16,0l-12-6.93a7.16,7.16,0,0,1-3.58-6.21V37a7.16,7.16,0,0,1,3.58-6.21l12-6.93a7.16,7.16,0,0,1,7.16,0l12,6.93A7.17,7.17,0,0,1,58.91,37V50.87Z"/><polygon class="cls-1" points="40.23 66.25 40.24 44.6 58.98 33.78 58.48 32.91 39.24 44.02 39.23 66.24 40.23 66.25 40.23 66.25"/><polyline class="cls-1" points="39.99 43.88 21 32.91 20.5 33.78 39.49 44.74"/><path d="M78.54,62.21V48.34A7.66,7.66,0,0,0,74.7,41.7l-12-6.93a7.65,7.65,0,0,0-7.66,0L43,41.7a7.67,7.67,0,0,0-3.83,6.64V62.21A7.67,7.67,0,0,0,43,68.85l12,6.94a7.65,7.65,0,0,0,7.66,0l12-6.94a7.66,7.66,0,0,0,3.84-6.64"/><path class="cls-1" d="M78.54,62.21H79V48.34A8.16,8.16,0,0,0,75,41.27l-12-6.94a8.18,8.18,0,0,0-8.16,0l-12,6.94a8.15,8.15,0,0,0-4.08,7.07V62.21a8.14,8.14,0,0,0,4.08,7.07l12,6.94a8.18,8.18,0,0,0,8.16,0l12-6.94A8.15,8.15,0,0,0,79,62.21H78a7.17,7.17,0,0,1-3.59,6.21l-12,6.93a7.16,7.16,0,0,1-7.16,0l-12-6.93a7.16,7.16,0,0,1-3.58-6.21V48.34a7.14,7.14,0,0,1,3.58-6.2l12-6.94a7.16,7.16,0,0,1,7.16,0l12,6.94A7.15,7.15,0,0,1,78,48.34V62.21Z"/><polygon class="cls-1" points="59.36 77.59 59.37 55.94 78.11 45.12 77.61 44.26 58.37 55.36 58.36 77.59 59.36 77.59 59.36 77.59"/><polyline class="cls-1" points="59.12 55.22 40.13 44.25 39.63 45.12 58.62 56.09"/><path d="M59.41,29V15.1a7.67,7.67,0,0,0-3.83-6.64l-12-6.93a7.65,7.65,0,0,0-7.66,0l-12,6.93a7.68,7.68,0,0,0-3.84,6.64V29a7.68,7.68,0,0,0,3.84,6.64l12,6.94a7.65,7.65,0,0,0,7.66,0l12-6.94A7.67,7.67,0,0,0,59.41,29"/><path class="cls-1" d="M59.41,29h.5V15.1A8.15,8.15,0,0,0,55.83,8l-12-6.94a8.18,8.18,0,0,0-8.16,0L23.64,8a8.16,8.16,0,0,0-4.09,7.07V29A8.16,8.16,0,0,0,23.64,36l12,6.94a8.18,8.18,0,0,0,8.16,0l12-6.94A8.15,8.15,0,0,0,59.91,29h-1a7.16,7.16,0,0,1-3.58,6.21l-12,6.93a7.16,7.16,0,0,1-7.16,0l-12-6.93A7.17,7.17,0,0,1,20.55,29V15.1a7.15,7.15,0,0,1,3.59-6.2L36.15,2a7.16,7.16,0,0,1,7.16,0l12,6.94a7.14,7.14,0,0,1,3.58,6.2V29Z"/><polygon class="cls-1" points="40.24 44.35 40.25 22.7 58.98 11.88 58.48 11.02 39.25 22.12 39.24 44.35 40.24 44.35 40.24 44.35"/><polyline class="cls-1" points="39.99 21.98 21.01 11.01 20.51 11.88 39.49 22.85"/></g></g></svg>